# xmcd
#
# Track frame offsets: 
#        150
#        15078
#        31397
#
# Disc length: 708 seconds
#
# Revision: 0
# Processed by: cddbd v1.5.2PL0 Copyright (c) Steve Scherf et al.
# Submitted via: ExactAudioCopy v0.99pb4
#
DISCID=1202c203
DTITLE=Indelicates - Sixteen
DYEAR=2007
DGENRE=Alternative
TTITLE0=Sixteen
TTITLE1=The Sequel to Peter Pan and Wendy
TTITLE2=Fun is For the Feeble Minded (Late Nite Acoutic Groove Mix)
EXTD=
EXTT0=
EXTT1=
EXTT2=
PLAYORDER=
